<mxfile host="app.diagrams.net" modified="2024-06-10T15:09:20.053Z" agent="Mozilla/5.0 (Macintosh; Intel Mac OS X 10_15_7) AppleWebKit/605.1.15 (KHTML, like Gecko) Version/17.4.1 Safari/605.1.15" etag="HG-rtZGNzm_8fOBqt1-W" version="24.5.2" type="github">
  <diagram id="C5RBs43oDa-KdzZeNtuy" name="Page-1">
    <mxGraphModel dx="954" dy="802" grid="1" gridSize="10" guides="1" tooltips="1" connect="1" arrows="1" fold="1" page="1" pageScale="1" pageWidth="827" pageHeight="1169" math="0" shadow="0">
      <root>
        <mxCell id="WIyWlLk6GJQsqaUBKTNV-0" />
        <mxCell id="WIyWlLk6GJQsqaUBKTNV-1" parent="WIyWlLk6GJQsqaUBKTNV-0" />
        <mxCell id="WIyWlLk6GJQsqaUBKTNV-2" value="" style="rounded=0;html=1;jettySize=auto;orthogonalLoop=1;fontSize=11;endArrow=block;endFill=0;endSize=8;strokeWidth=1;shadow=0;labelBackgroundColor=none;edgeStyle=orthogonalEdgeStyle;" parent="WIyWlLk6GJQsqaUBKTNV-1" source="WIyWlLk6GJQsqaUBKTNV-3" target="WIyWlLk6GJQsqaUBKTNV-6" edge="1">
          <mxGeometry relative="1" as="geometry" />
        </mxCell>
        <mxCell id="WIyWlLk6GJQsqaUBKTNV-3" value="Whisper&amp;nbsp;" style="rounded=1;whiteSpace=wrap;html=1;fontSize=12;glass=0;strokeWidth=1;shadow=0;" parent="WIyWlLk6GJQsqaUBKTNV-1" vertex="1">
          <mxGeometry x="20" y="190" width="120" height="40" as="geometry" />
        </mxCell>
        <mxCell id="WIyWlLk6GJQsqaUBKTNV-5" value="Non Ampere GPU" style="edgeStyle=orthogonalEdgeStyle;rounded=0;html=1;jettySize=auto;orthogonalLoop=1;fontSize=11;endArrow=block;endFill=0;endSize=8;strokeWidth=1;shadow=0;labelBackgroundColor=none;" parent="WIyWlLk6GJQsqaUBKTNV-1" source="WIyWlLk6GJQsqaUBKTNV-6" target="WIyWlLk6GJQsqaUBKTNV-7" edge="1">
          <mxGeometry x="0.0028" y="10" relative="1" as="geometry">
            <mxPoint as="offset" />
          </mxGeometry>
        </mxCell>
        <mxCell id="K7TWkGQyZAnxD3waMEVI-4" value="Ampere GPU" style="edgeStyle=orthogonalEdgeStyle;rounded=0;orthogonalLoop=1;jettySize=auto;html=1;exitX=0.5;exitY=1;exitDx=0;exitDy=0;entryX=0;entryY=0.5;entryDx=0;entryDy=0;" edge="1" parent="WIyWlLk6GJQsqaUBKTNV-1" source="WIyWlLk6GJQsqaUBKTNV-6" target="WIyWlLk6GJQsqaUBKTNV-12">
          <mxGeometry relative="1" as="geometry" />
        </mxCell>
        <mxCell id="K7TWkGQyZAnxD3waMEVI-9" value="MPS" style="edgeStyle=orthogonalEdgeStyle;rounded=0;orthogonalLoop=1;jettySize=auto;html=1;" edge="1" parent="WIyWlLk6GJQsqaUBKTNV-1" source="WIyWlLk6GJQsqaUBKTNV-6" target="K7TWkGQyZAnxD3waMEVI-8">
          <mxGeometry relative="1" as="geometry">
            <Array as="points">
              <mxPoint x="220" y="75" />
            </Array>
          </mxGeometry>
        </mxCell>
        <mxCell id="WIyWlLk6GJQsqaUBKTNV-6" value="GPU" style="rhombus;whiteSpace=wrap;html=1;shadow=0;fontFamily=Helvetica;fontSize=12;align=center;strokeWidth=1;spacing=6;spacingTop=-4;" parent="WIyWlLk6GJQsqaUBKTNV-1" vertex="1">
          <mxGeometry x="170" y="170" width="100" height="80" as="geometry" />
        </mxCell>
        <mxCell id="WIyWlLk6GJQsqaUBKTNV-7" value="&lt;div style=&quot;color: rgb(255, 255, 255); background-color: rgb(34, 44, 40); font-family: monospace, Menlo, Monaco, &amp;quot;Courier New&amp;quot;, monospace; font-size: 14px; line-height: 19px; white-space: pre;&quot;&gt;&lt;div&gt;whisper &lt;span style=&quot;color: rgb(168, 179, 171);&quot;&gt;=&lt;/span&gt; pipeline&lt;span style=&quot;color: rgb(220, 220, 220);&quot;&gt;(&lt;/span&gt;&lt;span style=&quot;color: rgb(206, 145, 120);&quot;&gt;&quot;automatic-speech-recognition&quot;&lt;/span&gt;&lt;span style=&quot;color: rgb(220, 220, 220);&quot;&gt;,&lt;/span&gt; &lt;/div&gt;&lt;div&gt;                   &lt;span style=&quot;color: rgb(206, 145, 120);&quot;&gt;&quot;openai/whisper-large-v3&quot;&lt;/span&gt;&lt;span style=&quot;color: rgb(220, 220, 220);&quot;&gt;,&lt;/span&gt; &lt;/div&gt;&lt;div&gt;                   torch_dtype&lt;span style=&quot;color: rgb(168, 179, 171);&quot;&gt;=&lt;/span&gt;torch.float16&lt;span style=&quot;color: rgb(220, 220, 220);&quot;&gt;,&lt;/span&gt; &lt;/div&gt;&lt;div&gt;                   generate_kwargs &lt;span style=&quot;color: rgb(168, 179, 171);&quot;&gt;=&lt;/span&gt; &lt;span style=&quot;color: rgb(220, 220, 220);&quot;&gt;{&lt;/span&gt;&lt;/div&gt;&lt;div&gt;                       attn_implementation&lt;span style=&quot;color: rgb(220, 220, 220);&quot;&gt;:&lt;/span&gt; &lt;span style=&quot;color: rgb(206, 145, 120);&quot;&gt;&quot;sdpa&quot;&lt;/span&gt;&lt;span style=&quot;color: rgb(220, 220, 220);&quot;&gt;},&lt;/span&gt;&lt;/div&gt;&lt;div&gt;                   device&lt;span style=&quot;color: rgb(168, 179, 171);&quot;&gt;=&lt;/span&gt;&lt;span style=&quot;color: rgb(206, 145, 120);&quot;&gt;&quot;cuda:0&quot;&lt;/span&gt;&lt;span style=&quot;color: rgb(220, 220, 220);&quot;&gt;)&lt;/span&gt;&lt;/div&gt;&lt;/div&gt;" style="rounded=1;whiteSpace=wrap;html=1;fontSize=12;glass=0;strokeWidth=1;shadow=0;align=left;" parent="WIyWlLk6GJQsqaUBKTNV-1" vertex="1">
          <mxGeometry x="370" y="200" width="450" height="145" as="geometry" />
        </mxCell>
        <mxCell id="WIyWlLk6GJQsqaUBKTNV-12" value="&lt;div style=&quot;text-align: start; color: rgb(255, 255, 255); background-color: rgb(34, 44, 40); font-family: monospace, Menlo, Monaco, &amp;quot;Courier New&amp;quot;, monospace; font-size: 14px; line-height: 19px; white-space: pre;&quot;&gt;&lt;div&gt;whisper &lt;span style=&quot;color: rgb(168, 179, 171);&quot;&gt;=&lt;/span&gt; pipeline&lt;span style=&quot;color: rgb(220, 220, 220);&quot;&gt;(&lt;/span&gt;&lt;span style=&quot;color: rgb(206, 145, 120);&quot;&gt;&quot;automatic-speech-recognition&quot;&lt;/span&gt;&lt;span style=&quot;color: rgb(220, 220, 220);&quot;&gt;,&lt;/span&gt; &lt;/div&gt;&lt;div&gt;                   &lt;span style=&quot;color: rgb(206, 145, 120);&quot;&gt;&quot;openai/whisper-large-v3&quot;&lt;/span&gt;&lt;span style=&quot;color: rgb(220, 220, 220);&quot;&gt;,&lt;/span&gt; &lt;/div&gt;&lt;div&gt;                   torch_dtype&lt;span style=&quot;color: rgb(168, 179, 171);&quot;&gt;=&lt;/span&gt;torch.float16&lt;span style=&quot;color: rgb(220, 220, 220);&quot;&gt;,&lt;/span&gt; &lt;/div&gt;&lt;div&gt;                   generate_kwargs &lt;span style=&quot;color: rgb(168, 179, 171);&quot;&gt;=&lt;/span&gt; &lt;span style=&quot;color: rgb(220, 220, 220);&quot;&gt;{&lt;/span&gt;&lt;/div&gt;&lt;div&gt;                       attn_implementation&lt;span style=&quot;color: rgb(220, 220, 220);&quot;&gt;:&lt;/span&gt; &lt;span style=&quot;color: rgb(206, 145, 120);&quot;&gt;&quot;flash_attention_2&quot;&lt;/span&gt;&lt;span style=&quot;color: rgb(220, 220, 220);&quot;&gt;},&lt;/span&gt;&lt;/div&gt;&lt;div&gt;                   device&lt;span style=&quot;color: rgb(168, 179, 171);&quot;&gt;=&lt;/span&gt;&lt;span style=&quot;color: rgb(206, 145, 120);&quot;&gt;&quot;cuda:0&quot;&lt;/span&gt;&lt;span style=&quot;color: rgb(220, 220, 220);&quot;&gt;)&lt;/span&gt;&lt;/div&gt;&lt;/div&gt;" style="rounded=1;whiteSpace=wrap;html=1;fontSize=12;glass=0;strokeWidth=1;shadow=0;" parent="WIyWlLk6GJQsqaUBKTNV-1" vertex="1">
          <mxGeometry x="270" y="390" width="550" height="130" as="geometry" />
        </mxCell>
        <mxCell id="K7TWkGQyZAnxD3waMEVI-8" value="&lt;div style=&quot;caret-color: rgb(255, 255, 255); color: rgb(255, 255, 255); font-family: monospace, Menlo, Monaco, &amp;quot;Courier New&amp;quot;, monospace; font-size: 14px; font-style: normal; font-variant-caps: normal; font-weight: 400; letter-spacing: normal; orphans: auto; text-align: left; text-indent: 0px; text-transform: none; white-space: pre; widows: auto; word-spacing: 0px; -webkit-text-stroke-width: 0px; background-color: rgb(34, 44, 40); text-decoration: none;&quot;&gt;whisper &lt;span style=&quot;color: rgb(168, 179, 171);&quot;&gt;=&lt;/span&gt; pipeline&lt;span style=&quot;color: rgb(220, 220, 220);&quot;&gt;(&lt;/span&gt;&lt;span style=&quot;color: rgb(206, 145, 120);&quot;&gt;&quot;automatic-speech-recognition&quot;&lt;/span&gt;&lt;span style=&quot;color: rgb(220, 220, 220);&quot;&gt;,&lt;/span&gt; &lt;/div&gt;&lt;div style=&quot;caret-color: rgb(255, 255, 255); color: rgb(255, 255, 255); font-family: monospace, Menlo, Monaco, &amp;quot;Courier New&amp;quot;, monospace; font-size: 14px; font-style: normal; font-variant-caps: normal; font-weight: 400; letter-spacing: normal; orphans: auto; text-align: left; text-indent: 0px; text-transform: none; white-space: pre; widows: auto; word-spacing: 0px; -webkit-text-stroke-width: 0px; background-color: rgb(34, 44, 40); text-decoration: none;&quot;&gt;                   &lt;span style=&quot;color: rgb(206, 145, 120);&quot;&gt;&quot;openai/whisper-large-v3&quot;&lt;/span&gt;&lt;span style=&quot;color: rgb(220, 220, 220);&quot;&gt;,&lt;/span&gt; &lt;/div&gt;&lt;div style=&quot;caret-color: rgb(255, 255, 255); color: rgb(255, 255, 255); font-family: monospace, Menlo, Monaco, &amp;quot;Courier New&amp;quot;, monospace; font-size: 14px; font-style: normal; font-variant-caps: normal; font-weight: 400; letter-spacing: normal; orphans: auto; text-align: left; text-indent: 0px; text-transform: none; white-space: pre; widows: auto; word-spacing: 0px; -webkit-text-stroke-width: 0px; background-color: rgb(34, 44, 40); text-decoration: none;&quot;&gt;                   torch_dtype&lt;span style=&quot;color: rgb(168, 179, 171);&quot;&gt;=&lt;/span&gt;torch.float16&lt;span style=&quot;color: rgb(220, 220, 220);&quot;&gt;,&lt;/span&gt; &lt;/div&gt;&lt;div style=&quot;caret-color: rgb(255, 255, 255); color: rgb(255, 255, 255); font-family: monospace, Menlo, Monaco, &amp;quot;Courier New&amp;quot;, monospace; font-size: 14px; font-style: normal; font-variant-caps: normal; font-weight: 400; letter-spacing: normal; orphans: auto; text-align: left; text-indent: 0px; text-transform: none; white-space: pre; widows: auto; word-spacing: 0px; -webkit-text-stroke-width: 0px; background-color: rgb(34, 44, 40); text-decoration: none;&quot;&gt;                   generate_kwargs &lt;span style=&quot;color: rgb(168, 179, 171);&quot;&gt;=&lt;/span&gt; &lt;span style=&quot;color: rgb(220, 220, 220);&quot;&gt;{&lt;/span&gt;&lt;/div&gt;&lt;div style=&quot;caret-color: rgb(255, 255, 255); color: rgb(255, 255, 255); font-family: monospace, Menlo, Monaco, &amp;quot;Courier New&amp;quot;, monospace; font-size: 14px; font-style: normal; font-variant-caps: normal; font-weight: 400; letter-spacing: normal; orphans: auto; text-align: left; text-indent: 0px; text-transform: none; white-space: pre; widows: auto; word-spacing: 0px; -webkit-text-stroke-width: 0px; background-color: rgb(34, 44, 40); text-decoration: none;&quot;&gt;                       attn_implementation&lt;span style=&quot;color: rgb(220, 220, 220);&quot;&gt;:&lt;/span&gt; &lt;span style=&quot;color: rgb(206, 145, 120);&quot;&gt;&quot;sdpa&quot;&lt;/span&gt;&lt;span style=&quot;color: rgb(220, 220, 220);&quot;&gt;},&lt;/span&gt;&lt;/div&gt;&lt;div style=&quot;text-align: left; text-indent: 0px; background-color: rgb(34, 44, 40);&quot;&gt;&lt;font face=&quot;monospace, Menlo, Monaco, Courier New, monospace&quot; color=&quot;#ffffff&quot;&gt;&lt;span style=&quot;caret-color: rgb(255, 255, 255); font-size: 14px; white-space: pre;&quot;&gt;                   device&lt;/span&gt;&lt;/font&gt;&lt;span style=&quot;caret-color: rgb(255, 255, 255); color: rgb(168, 179, 171); font-family: monospace, Menlo, Monaco, &amp;quot;Courier New&amp;quot;, monospace; font-size: 14px; font-style: normal; font-variant-caps: normal; font-weight: 400; letter-spacing: normal; text-transform: none; white-space: pre; word-spacing: 0px; text-decoration: none; -webkit-text-stroke-width: 0px;&quot;&gt;=&lt;/span&gt;&lt;font face=&quot;monospace, Menlo, Monaco, Courier New, monospace&quot; color=&quot;#ce9178&quot;&gt;&lt;span style=&quot;caret-color: rgb(255, 255, 255); font-size: 14px; white-space: pre;&quot;&gt;&quot;mps&quot;&lt;/span&gt;&lt;/font&gt;&lt;span style=&quot;caret-color: rgb(255, 255, 255); color: rgb(220, 220, 220); font-family: monospace, Menlo, Monaco, &amp;quot;Courier New&amp;quot;, monospace; font-size: 14px; font-style: normal; font-variant-caps: normal; font-weight: 400; letter-spacing: normal; text-transform: none; white-space: pre; word-spacing: 0px; text-decoration: none; -webkit-text-stroke-width: 0px;&quot;&gt;)&lt;/span&gt;&lt;/div&gt;" style="rounded=1;whiteSpace=wrap;html=1;shadow=0;strokeWidth=1;spacing=6;spacingTop=-4;" vertex="1" parent="WIyWlLk6GJQsqaUBKTNV-1">
          <mxGeometry x="370" y="20" width="450" height="110" as="geometry" />
        </mxCell>
      </root>
    </mxGraphModel>
  </diagram>
</mxfile>
